<svg width="512" height="512" viewBox="0 0 512 512" fill="none" xmlns="http://www.w3.org/2000/svg">
<path d="M361.5 425H405.75C417.486 425 428.741 419.483 437.039 409.664C445.338 399.844 450 386.526 450 372.639V100.361C450 86.4741 445.338 73.1558 437.039 63.3362C428.741 53.5166 417.486 48 405.75 48H140.25C128.514 48 117.259 53.5166 108.961 63.3362C100.662 73.1558 96 86.4741 96 100.361V372.639C96 386.526 100.662 399.844 108.961 409.664C117.259 419.483 128.514 425 140.25 425H184.5" stroke="white" stroke-width="32" stroke-linecap="round" stroke-linejoin="round"/>
<path d="M193 240L273 160L353 240M273 464V176" stroke="white" stroke-width="32" stroke-linecap="round" stroke-linejoin="round"/>
</svg>
