<svg width="512" height="512" viewBox="0 0 512 512" fill="none" xmlns="http://www.w3.org/2000/svg">
<path d="M384 368H408C418.599 367.968 428.755 363.744 436.249 356.249C443.744 348.755 447.968 338.599 448 328V168C447.968 157.401 443.744 147.245 436.249 139.751C428.755 132.256 418.599 128.032 408 128H104C93.4011 128.032 83.2453 132.256 75.7507 139.751C68.2561 147.245 64.0317 157.401 64 168V328C64.0317 338.599 68.2561 348.755 75.7507 356.249C83.2453 363.744 93.4011 367.968 104 368H128" stroke="white" stroke-width="32" stroke-linejoin="round"/>
<path d="M359.68 240H152.32C138.888 240 128 250.888 128 264.32V423.68C128 437.112 138.888 448 152.32 448H359.68C373.112 448 384 437.112 384 423.68V264.32C384 250.888 373.112 240 359.68 240Z" stroke="white" stroke-width="32" stroke-linejoin="round"/>
<path d="M384 128V104C383.968 93.4011 379.744 83.2453 372.249 75.7507C364.755 68.2561 354.599 64.0317 344 64H168C157.401 64.0317 147.245 68.2561 139.751 75.7507C132.256 83.2453 128.032 93.4011 128 104V128" stroke="white" stroke-width="32" stroke-linejoin="round"/>
<path d="M392 208C405.255 208 416 197.255 416 184C416 170.745 405.255 160 392 160C378.745 160 368 170.745 368 184C368 197.255 378.745 208 392 208Z" fill="white"/>
</svg>
